# xmcd
#
# Track frame offsets:
#	150
#	20201
#	35720
#	47221
#	62104
#	76422
#	90458
#	109337
#	120309
#	146433
#
# Disc length: 2184 seconds
#
# Revision: 0
# Processed by: cddbd v1.5.2PL0 Copyright (c) Steve Scherf et al.
# Submitted via: EasyCDDAExtractor 11.1.0.1
#
DISCID=8708860a
DTITLE=Rio Grande
DYEAR=1900
DGENRE=Country
TTITLE0=You can take the boy out of the country
TTITLE1=Country blues
TTITLE2=I ain't beggin' you for money
TTITLE3=Why did you have to die
TTITLE4=Once but never twice
TTITLE5=The lonely love the night
TTITLE6=Baby it's never too late
TTITLE7=Cry once more
TTITLE8=Diggin' for gold
TTITLE9=Data
EXTD=
EXTT0=
EXTT1=
EXTT2=
EXTT3=
EXTT4=
EXTT5=
EXTT6=
EXTT7=
EXTT8=
EXTT9=
PLAYORDER=
